<svg width="89" height="91" viewBox="0 0 89 91" fill="none" xmlns="http://www.w3.org/2000/svg">
<path d="M4.93309 32.3762L32.5873 4.90196C35.7468 1.76328 40.0319 0 44.5 0C48.9681 0 53.2532 1.76328 56.4127 4.90196L84.0669 32.3762C87.2255 35.5145 89 39.7708 89 44.2088C89 48.6468 87.2255 52.9031 84.0669 56.0414L56.4097 83.5176C54.8457 85.0715 52.9889 86.3042 50.9453 87.1451C48.9017 87.9861 46.7114 88.419 44.4995 88.419C42.2875 88.419 40.0973 87.9861 38.0537 87.1451C36.0101 86.3042 34.1533 85.0715 32.5893 83.5176L4.93309 56.0414C1.77447 52.9031 0 48.6468 0 44.2088C0 39.7708 1.77447 35.5145 4.93309 32.3762Z" fill="url(#paint0_linear_41_120)"/>
<path d="M34.0972 77.3717L33.9209 77.1992L11.2936 54.7189C8.51817 51.9615 6.94461 48.231 6.91213 44.3317C6.87966 40.4323 8.39086 36.6765 11.12 33.8738L11.2936 33.6986L33.9192 11.2198C36.6952 8.46203 40.4509 6.8985 44.3765 6.86623C48.3021 6.83397 52.0832 8.33556 54.9048 11.0473L55.0814 11.2198L77.7067 33.6986C80.4822 36.4561 82.0557 40.1866 82.0882 44.0859C82.1207 47.9853 80.6095 51.7411 77.8804 54.5438L77.7067 54.7193L55.0791 77.1992C52.3038 79.9567 48.5487 81.5202 44.6237 81.5525C40.6987 81.5848 36.9181 80.0832 34.0972 77.3717Z" fill="#D2741A" fill-opacity="0.2"/>
<path d="M22.269 64.5471C27.4904 63.9033 43.9122 62.9508 64.4038 63.2968C79.8764 63.5592 79.6635 58.8161 79.6635 58.8161C79.6635 58.8161 86.9232 83.5052 71.1604 83.239C3.27222 80.4026 11.0145 89.8183 11.0145 89.8183C11.0145 89.8183 -1.562 67.4847 22.269 64.5471Z" fill="#D2741A"/>
<path d="M26.0823 69.787L27.1358 71.9975L29.2934 72.2252C29.4015 72.2366 29.5039 72.2795 29.5877 72.3485C29.6714 72.4175 29.7327 72.5095 29.764 72.613C29.7953 72.7165 29.7952 72.8268 29.7635 72.9302C29.7319 73.0336 29.6703 73.1255 29.5863 73.1942L27.867 74.6008L28.3997 76.9637C28.4232 77.0687 28.4152 77.1783 28.3766 77.2789C28.338 77.3794 28.2705 77.4665 28.1825 77.5292C28.0945 77.5919 27.9899 77.6276 27.8816 77.6317C27.7734 77.6359 27.6663 77.6083 27.5737 77.5525L25.5823 76.3501L23.5909 77.5525C23.4984 77.6085 23.3912 77.6362 23.2829 77.6321C23.1746 77.6281 23.0699 77.5924 22.9819 77.5296C22.8938 77.4669 22.8263 77.3797 22.7877 77.2791C22.7491 77.1785 22.7412 77.0688 22.765 76.9637L23.2973 74.6008L21.578 73.1942C21.4942 73.1254 21.4327 73.0336 21.4012 72.9302C21.3697 72.8268 21.3695 72.7165 21.4008 72.6131C21.4321 72.5097 21.4934 72.4177 21.577 72.3487C21.6606 72.2797 21.7629 72.2368 21.8709 72.2252L24.0285 71.9975L25.082 69.787C25.1268 69.6931 25.1974 69.6138 25.2858 69.5582C25.3742 69.5026 25.4766 69.4731 25.5812 69.4731C25.6857 69.4731 25.7881 69.5026 25.8765 69.5582C25.9649 69.6138 26.0355 69.6931 26.0803 69.787" fill="white"/>
<path d="M38.5559 69.787L39.6094 71.9975L41.767 72.2252C41.8752 72.2366 41.9776 72.2795 42.0613 72.3485C42.145 72.4175 42.2064 72.5095 42.2377 72.613C42.269 72.7165 42.2688 72.8268 42.2372 72.9302C42.2056 73.0336 42.1439 73.1255 42.06 73.1942L40.3406 74.6008L40.8733 76.9637C40.8969 77.0687 40.8889 77.1783 40.8503 77.2789C40.8117 77.3794 40.7441 77.4665 40.6561 77.5292C40.5681 77.5919 40.4635 77.6276 40.3553 77.6317C40.247 77.6359 40.14 77.6083 40.0473 77.5525L38.056 76.3501L36.0646 77.5525C35.972 77.6085 35.8649 77.6362 35.7566 77.6321C35.6483 77.6281 35.5435 77.5924 35.4555 77.5296C35.3674 77.4669 35.2999 77.3797 35.2613 77.2791C35.2228 77.1785 35.2149 77.0688 35.2386 76.9637L35.7709 74.6008L34.0516 73.1942C33.9678 73.1254 33.9063 73.0336 33.8748 72.9302C33.8433 72.8268 33.8432 72.7165 33.8744 72.6131C33.9057 72.5097 33.967 72.4177 34.0506 72.3487C34.1342 72.2797 34.2365 72.2368 34.3446 72.2252L36.5022 71.9975L37.5557 69.787C37.6004 69.6931 37.6711 69.6138 37.7594 69.5582C37.8478 69.5026 37.9502 69.4731 38.0548 69.4731C38.1594 69.4731 38.2618 69.5026 38.3501 69.5582C38.4385 69.6138 38.5092 69.6931 38.5539 69.787" fill="white"/>
<path d="M51.0296 69.787L52.0831 71.9975L54.2406 72.2252C54.3488 72.2366 54.4512 72.2795 54.5349 72.3485C54.6186 72.4175 54.68 72.5095 54.7113 72.613C54.7426 72.7165 54.7424 72.8268 54.7108 72.9302C54.6792 73.0336 54.6176 73.1255 54.5336 73.1942L52.8143 74.6008L53.3469 76.9637C53.3705 77.0687 53.3625 77.1783 53.3239 77.2789C53.2853 77.3794 53.2178 77.4665 53.1298 77.5292C53.0418 77.5919 52.9371 77.6276 52.8289 77.6317C52.7207 77.6359 52.6136 77.6083 52.521 77.5525L50.5296 76.3501L48.5382 77.5525C48.4456 77.6085 48.3385 77.6362 48.2302 77.6321C48.1219 77.6281 48.0172 77.5924 47.9291 77.5296C47.8411 77.4669 47.7735 77.3797 47.735 77.2791C47.6964 77.1785 47.6885 77.0688 47.7123 76.9637L48.2446 74.6008L46.5253 73.1942C46.4415 73.1254 46.38 73.0336 46.3484 72.9302C46.3169 72.8268 46.3168 72.7165 46.3481 72.6131C46.3793 72.5097 46.4406 72.4177 46.5243 72.3487C46.6079 72.2797 46.7101 72.2368 46.8182 72.2252L48.9758 71.9975L50.0293 69.787C50.074 69.6931 50.1447 69.6138 50.2331 69.5582C50.3214 69.5026 50.4238 69.4731 50.5284 69.4731C50.633 69.4731 50.7354 69.5026 50.8238 69.5582C50.9121 69.6138 50.9828 69.6931 51.0275 69.787" fill="white"/>
<path d="M63.5027 69.787L64.5562 71.9975L66.7138 72.2252C66.822 72.2366 66.9243 72.2795 67.0081 72.3485C67.0918 72.4175 67.1532 72.5095 67.1844 72.613C67.2157 72.7165 67.2156 72.8268 67.184 72.9302C67.1523 73.0336 67.0907 73.1255 67.0067 73.1942L65.2874 74.6008L65.8201 76.9637C65.8437 77.0687 65.8356 77.1783 65.797 77.2789C65.7584 77.3794 65.6909 77.4665 65.6029 77.5292C65.5149 77.5919 65.4103 77.6276 65.302 77.6317C65.1938 77.6359 65.0867 77.6083 64.9941 77.5525L63.0027 76.3501L61.0114 77.5525C60.9188 77.6085 60.8117 77.6362 60.7033 77.6321C60.595 77.6281 60.4903 77.5924 60.4023 77.5296C60.3142 77.4669 60.2467 77.3797 60.2081 77.2791C60.1696 77.1785 60.1617 77.0688 60.1854 76.9637L60.7177 74.6008L58.9984 73.1942C58.9146 73.1254 58.8531 73.0336 58.8216 72.9302C58.7901 72.8268 58.7899 72.7165 58.8212 72.6131C58.8525 72.5097 58.9138 72.4177 58.9974 72.3487C59.081 72.2797 59.1833 72.2368 59.2914 72.2252L61.4489 71.9975L62.5025 69.787C62.5472 69.6931 62.6179 69.6138 62.7062 69.5582C62.7946 69.5026 62.897 69.4731 63.0016 69.4731C63.1061 69.4731 63.2086 69.5026 63.2969 69.5582C63.3853 69.6138 63.4559 69.6931 63.5007 69.787" fill="white"/>
<path d="M46.844 23.8799C54.7043 28.5554 59.3334 37.3859 57.4118 44.9186C57.3238 45.0914 57.3238 45.2649 57.2365 45.4384C61.1666 50.2003 60.1192 55.3949 59.6823 54.2693C57.5861 50.2864 53.7429 51.326 51.8216 52.2785C47.3237 54.9873 41.778 54.9605 36.3632 52.6241C31.9487 50.7283 28.2072 47.562 25.6211 43.5337C26.9312 44.4862 28.1539 45.3513 29.6386 45.9579C35.49 48.6416 41.2541 48.4698 45.3586 45.9579C39.5072 41.5419 34.7035 35.8282 30.9476 31.0663C30.2491 30.1138 29.5503 29.248 29.026 28.3822C33.4814 32.4508 40.5556 37.4733 43.0881 38.945C37.7605 33.4044 32.9572 26.3918 33.2192 26.6507C38.3218 31.8045 43.9738 36.3913 50.0753 40.3302C50.2607 39.9112 50.4074 39.4764 50.5136 39.031C51.7346 34.095 50.3376 28.5554 46.844 23.8799Z" fill="white"/>
<defs>
<linearGradient id="paint0_linear_41_120" x1="44.5" y1="0" x2="44.5" y2="88.419" gradientUnits="userSpaceOnUse">
<stop stop-color="#EDCE2F"/>
<stop offset="1" stop-color="#E2AE22"/>
</linearGradient>
</defs>
</svg>
