<svg width="89" height="91" viewBox="0 0 89 91" fill="none" xmlns="http://www.w3.org/2000/svg">
<path d="M4.93309 32.3762L32.5873 4.90196C35.7468 1.76328 40.0319 0 44.5 0C48.9681 0 53.2532 1.76328 56.4127 4.90196L84.0669 32.3762C87.2255 35.5145 89 39.7708 89 44.2088C89 48.6468 87.2255 52.9031 84.0669 56.0414L56.4097 83.5176C54.8457 85.0715 52.9889 86.3042 50.9453 87.1452C48.9017 87.9861 46.7114 88.419 44.4995 88.419C42.2875 88.419 40.0973 87.9861 38.0537 87.1452C36.0101 86.3042 34.1533 85.0715 32.5893 83.5176L4.93309 56.0414C1.77447 52.9031 0 48.6468 0 44.2088C0 39.7708 1.77447 35.5145 4.93309 32.3762" fill="url(#paint0_linear_41_120)"/>
<path d="M34.0972 77.3718L33.9209 77.1993L11.2936 54.7191C8.51817 51.9616 6.94461 48.2311 6.91213 44.3318C6.87966 40.4325 8.39086 36.6766 11.12 33.8739L11.2936 33.6988L33.9192 11.2199C36.6952 8.46216 40.4509 6.89862 44.3765 6.86635C48.3021 6.83409 52.0832 8.33568 54.9048 11.0474L55.0814 11.2199L77.7067 33.6988C80.4822 36.4562 82.0557 40.1867 82.0882 44.086C82.1207 47.9854 80.6095 51.7412 77.8804 54.5439L77.7067 54.7194L55.0791 77.1993C52.3038 79.9569 48.5487 81.5204 44.6237 81.5526C40.6987 81.5849 36.9181 80.0833 34.0972 77.3718V77.3718Z" fill="#D2741A" fill-opacity="0.2"/>
<path d="M22.2693 64.5471C27.4907 63.9033 43.9124 62.9508 64.4041 63.2968C79.8766 63.5592 79.6637 58.8161 79.6637 58.8161C79.6637 58.8161 86.9235 83.5052 71.1606 83.239C3.27246 80.4026 11.0148 89.8183 11.0148 89.8183C11.0148 89.8183 -1.56176 67.4847 22.2693 64.5471Z" fill="#D2741A"/>
<path d="M26.0822 69.7871L27.1357 71.9976L29.2933 72.2254C29.4014 72.2368 29.5038 72.2796 29.5875 72.3486C29.6713 72.4176 29.7326 72.5096 29.7639 72.6131C29.7952 72.7166 29.795 72.827 29.7634 72.9304C29.7318 73.0338 29.6702 73.1256 29.5862 73.1943L27.8669 74.601L28.3995 76.9638C28.4231 77.0689 28.4151 77.1785 28.3765 77.279C28.3379 77.3795 28.2704 77.4666 28.1824 77.5293C28.0944 77.5921 27.9898 77.6277 27.8815 77.6319C27.7733 77.636 27.6662 77.6084 27.5736 77.5526L25.5822 76.3503L23.5908 77.5526C23.4982 77.6086 23.3911 77.6363 23.2828 77.6322C23.1745 77.6282 23.0698 77.5925 22.9817 77.5298C22.8937 77.467 22.8261 77.3798 22.7876 77.2792C22.749 77.1786 22.7411 77.0689 22.7649 76.9638L23.2972 74.601L21.5779 73.1943C21.4941 73.1255 21.4326 73.0337 21.4011 72.9303C21.3695 72.827 21.3694 72.7167 21.4007 72.6132C21.4319 72.5098 21.4932 72.4178 21.5769 72.3489C21.6605 72.2799 21.7627 72.2369 21.8708 72.2254L24.0284 71.9976L25.0819 69.7871C25.1267 69.6932 25.1973 69.6139 25.2857 69.5583C25.374 69.5028 25.4765 69.4733 25.581 69.4733C25.6856 69.4733 25.788 69.5028 25.8764 69.5583C25.9647 69.6139 26.0354 69.6932 26.0801 69.7871" fill="white"/>
<path d="M38.5557 69.7871L39.6092 71.9976L41.7668 72.2254C41.8749 72.2368 41.9773 72.2796 42.061 72.3486C42.1448 72.4176 42.2061 72.5096 42.2374 72.6131C42.2687 72.7166 42.2685 72.827 42.2369 72.9304C42.2053 73.0338 42.1437 73.1256 42.0597 73.1943L40.3404 74.601L40.8731 76.9638C40.8966 77.0689 40.8886 77.1785 40.85 77.279C40.8114 77.3795 40.7439 77.4666 40.6559 77.5293C40.5679 77.5921 40.4633 77.6277 40.355 77.6319C40.2468 77.636 40.1397 77.6084 40.0471 77.5526L38.0557 76.3503L36.0643 77.5526C35.9718 77.6086 35.8646 77.6363 35.7563 77.6322C35.648 77.6282 35.5433 77.5925 35.4552 77.5298C35.3672 77.467 35.2997 77.3798 35.2611 77.2792C35.2225 77.1786 35.2146 77.0689 35.2384 76.9638L35.7707 74.601L34.0514 73.1943C33.9676 73.1255 33.9061 73.0337 33.8746 72.9303C33.843 72.827 33.8429 72.7167 33.8742 72.6132C33.9055 72.5098 33.9667 72.4178 34.0504 72.3489C34.134 72.2799 34.2363 72.2369 34.3443 72.2254L36.5019 71.9976L37.5554 69.7871C37.6002 69.6932 37.6708 69.6139 37.7592 69.5583C37.8475 69.5028 37.95 69.4733 38.0545 69.4733C38.1591 69.4733 38.2615 69.5028 38.3499 69.5583C38.4382 69.6139 38.5089 69.6932 38.5537 69.7871" fill="white"/>
<path d="M51.0292 69.7871L52.0828 71.9976L54.2403 72.2254C54.3485 72.2368 54.4509 72.2796 54.5346 72.3486C54.6183 72.4176 54.6797 72.5096 54.711 72.6131C54.7423 72.7166 54.7421 72.827 54.7105 72.9304C54.6789 73.0338 54.6172 73.1256 54.5333 73.1943L52.814 74.601L53.3466 76.9638C53.3702 77.0689 53.3622 77.1785 53.3236 77.279C53.285 77.3795 53.2175 77.4666 53.1295 77.5293C53.0415 77.5921 52.9368 77.6277 52.8286 77.6319C52.7204 77.636 52.6133 77.6084 52.5207 77.5526L50.5293 76.3503L48.5379 77.5526C48.4453 77.6086 48.3382 77.6363 48.2299 77.6322C48.1216 77.6282 48.0169 77.5925 47.9288 77.5298C47.8408 77.467 47.7732 77.3798 47.7347 77.2792C47.6961 77.1786 47.6882 77.0689 47.712 76.9638L48.2443 74.601L46.5249 73.1943C46.4412 73.1255 46.3797 73.0337 46.3481 72.9303C46.3166 72.827 46.3165 72.7167 46.3478 72.6132C46.379 72.5098 46.4403 72.4178 46.5239 72.3489C46.6076 72.2799 46.7098 72.2369 46.8179 72.2254L48.9755 71.9976L50.029 69.7871C50.0737 69.6932 50.1444 69.6139 50.2328 69.5583C50.3211 69.5028 50.4235 69.4733 50.5281 69.4733C50.6327 69.4733 50.7351 69.5028 50.8235 69.5583C50.9118 69.6139 50.9825 69.6932 51.0272 69.7871" fill="white"/>
<path d="M63.5028 69.7871L64.5563 71.9976L66.7139 72.2254C66.8221 72.2368 66.9245 72.2796 67.0082 72.3486C67.0919 72.4176 67.1533 72.5096 67.1846 72.6131C67.2159 72.7166 67.2157 72.827 67.1841 72.9304C67.1525 73.0338 67.0908 73.1256 67.0069 73.1943L65.2875 74.601L65.8202 76.9638C65.8438 77.0689 65.8358 77.1785 65.7972 77.279C65.7585 77.3795 65.691 77.4666 65.603 77.5293C65.515 77.5921 65.4104 77.6277 65.3022 77.6319C65.1939 77.636 65.0869 77.6084 64.9942 77.5526L63.0029 76.3503L61.0115 77.5526C60.9189 77.6086 60.8118 77.6363 60.7035 77.6322C60.5952 77.6282 60.4904 77.5925 60.4024 77.5298C60.3143 77.467 60.2468 77.3798 60.2082 77.2792C60.1697 77.1786 60.1618 77.0689 60.1855 76.9638L60.7178 74.601L58.9985 73.1943C58.9147 73.1255 58.8532 73.0337 58.8217 72.9303C58.7902 72.827 58.7901 72.7167 58.8213 72.6132C58.8526 72.5098 58.9139 72.4178 58.9975 72.3489C59.0811 72.2799 59.1834 72.2369 59.2915 72.2254L61.4491 71.9976L62.5026 69.7871C62.5473 69.6932 62.618 69.6139 62.7063 69.5583C62.7947 69.5028 62.8971 69.4733 63.0017 69.4733C63.1063 69.4733 63.2087 69.5028 63.297 69.5583C63.3854 69.6139 63.4561 69.6932 63.5008 69.7871" fill="white"/>
<path d="M46.8442 23.8799C54.7046 28.5554 59.3336 37.3859 57.412 44.9186C57.324 45.0914 57.324 45.2649 57.2367 45.4384C61.1669 50.2003 60.1194 55.3949 59.6825 54.2693C57.5863 50.2864 53.7431 51.326 51.8218 52.2785C47.324 54.9873 41.7783 54.9605 36.3634 52.6241C31.949 50.7283 28.2074 47.562 25.6213 43.5337C26.9314 44.4862 28.1541 45.3513 29.6388 45.9579C35.4903 48.6416 41.2544 48.4698 45.3589 45.9579C39.5074 41.5419 34.7038 35.8282 30.9479 31.0663C30.2494 30.1138 29.5505 29.248 29.0263 28.3822C33.4817 32.4508 40.5559 37.4733 43.0883 38.945C37.7608 33.4044 32.9575 26.3918 33.2194 26.6507C38.322 31.8045 43.974 36.3913 50.0755 40.3302C50.261 39.9112 50.4077 39.4764 50.5138 39.031C51.7349 34.095 50.3378 28.5554 46.8442 23.8799Z" fill="white"/>
<defs>
<linearGradient id="paint0_linear_41_120" x1="44.5" y1="0" x2="44.5" y2="88.419" gradientUnits="userSpaceOnUse">
<stop stop-color="#EDCE2F"/>
<stop offset="1" stop-color="#E2AE22"/>
</linearGradient>
</defs>
</svg>
